<?xml version="1.0" encoding="utf-8"?>
<!DOCTYPE score-partwise  PUBLIC "-//Recordare//DTD MusicXML 3.0 Partwise//EN" "http://www.musicxml.org/dtds/partwise.dtd">
<score-partwise version="3.0">
  <movement-title>Music21 Fragment</movement-title>
  <identification>
    <creator type="composer">Music21</creator>
    <encoding>
      <encoding-date>2023-03-04</encoding-date>
      <software>music21 v.6.7.1</software>
    </encoding>
  </identification>
  <defaults>
    <scaling>
      <millimeters>7</millimeters>
      <tenths>40</tenths>
    </scaling>
  </defaults>
  <part-list>
    <score-part id="P760b2f975a2d703050961564a692cd65">
      <part-name>Ragged Hank Of Yarn, The 18758</part-name>
    </score-part>
  </part-list>
  <!--=========================== Part 1 ===========================-->
  <part id="P760b2f975a2d703050961564a692cd65">
    <!--========================= Measure 1 ==========================-->
    <measure number="1">
      <attributes>
        <divisions>10080</divisions>
        <key>
          <fifths>1</fifths>
          <mode>major</mode>
        </key>
        <time>
          <beats>4</beats>
          <beat-type>4</beat-type>
        </time>
        <clef>
          <sign>G</sign>
          <line>2</line>
        </clef>
      </attributes>
      <direction>
        <direction-type>
          <metronome parentheses="no">
            <beat-unit>quarter</beat-unit>
            <per-minute>120</per-minute>
          </metronome>
        </direction-type>
        <sound tempo="120" />
      </direction>
      <note dynamics="116.67">
        <pitch>
          <step>D</step>
          <octave>4</octave>
        </pitch>
        <duration>10080</duration>
        <voice>0</voice>
        <type>quarter</type>
      </note>
      <note dynamics="88.89">
        <pitch>
          <step>A</step>
          <octave>4</octave>
        </pitch>
        <duration>5040</duration>
        <voice>0</voice>
        <type>eighth</type>
        <stem>up</stem>
        <beam number="1">begin</beam>
      </note>
      <note dynamics="88.89">
        <pitch>
          <step>D</step>
          <octave>4</octave>
        </pitch>
        <duration>5040</duration>
        <voice>0</voice>
        <type>eighth</type>
        <stem>up</stem>
        <beam number="1">end</beam>
      </note>
      <note dynamics="105.56">
        <pitch>
          <step>E</step>
          <octave>4</octave>
        </pitch>
        <duration>3360</duration>
        <voice>0</voice>
        <type>eighth</type>
        <time-modification>
          <actual-notes>3</actual-notes>
          <normal-notes>2</normal-notes>
          <normal-type>eighth</normal-type>
        </time-modification>
        <stem>up</stem>
        <beam number="1">begin</beam>
      </note>
      <note dynamics="88.89">
        <pitch>
          <step>F</step>
          <alter>1</alter>
          <octave>4</octave>
        </pitch>
        <duration>3360</duration>
        <voice>0</voice>
        <type>eighth</type>
        <time-modification>
          <actual-notes>3</actual-notes>
          <normal-notes>2</normal-notes>
          <normal-type>eighth</normal-type>
        </time-modification>
        <stem>up</stem>
        <beam number="1">continue</beam>
      </note>
      <note dynamics="88.89">
        <pitch>
          <step>G</step>
          <octave>4</octave>
        </pitch>
        <duration>3360</duration>
        <voice>0</voice>
        <type>eighth</type>
        <time-modification>
          <actual-notes>3</actual-notes>
          <normal-notes>2</normal-notes>
          <normal-type>eighth</normal-type>
        </time-modification>
        <stem>up</stem>
        <beam number="1">end</beam>
      </note>
      <note dynamics="88.89">
        <pitch>
          <step>A</step>
          <octave>4</octave>
        </pitch>
        <duration>5040</duration>
        <voice>0</voice>
        <type>eighth</type>
        <stem>up</stem>
        <beam number="1">begin</beam>
      </note>
      <note dynamics="88.89">
        <pitch>
          <step>B</step>
          <octave>4</octave>
        </pitch>
        <duration>5040</duration>
        <voice>0</voice>
        <type>eighth</type>
        <stem>up</stem>
        <beam number="1">end</beam>
      </note>
      <backup>
        <duration>40320</duration>
      </backup>
      <note>
        <rest measure="yes" />
        <duration>40320</duration>
        <voice>1</voice>
      </note>
      <backup>
        <duration>40320</duration>
      </backup>
      <note>
        <rest measure="yes" />
        <duration>40320</duration>
        <voice>2</voice>
      </note>
      <backup>
        <duration>40320</duration>
      </backup>
      <note>
        <rest measure="yes" />
        <duration>40320</duration>
        <voice>3</voice>
      </note>
      <backup>
        <duration>40320</duration>
      </backup>
      <note>
        <rest measure="yes" />
        <duration>40320</duration>
        <voice>4</voice>
      </note>
      <backup>
        <duration>40320</duration>
      </backup>
      <note>
        <rest measure="yes" />
        <duration>40320</duration>
        <voice>5</voice>
      </note>
      <backup>
        <duration>40320</duration>
      </backup>
      <note>
        <rest measure="yes" />
        <duration>40320</duration>
        <voice>6</voice>
      </note>
      <backup>
        <duration>40320</duration>
      </backup>
      <note>
        <rest measure="yes" />
        <duration>40320</duration>
        <voice>7</voice>
      </note>
      <backup>
        <duration>40320</duration>
      </backup>
      <note>
        <rest measure="yes" />
        <duration>40320</duration>
        <voice>8</voice>
      </note>
      <backup>
        <duration>40320</duration>
      </backup>
      <note>
        <rest measure="yes" />
        <duration>40320</duration>
        <voice>9</voice>
      </note>
      <backup>
        <duration>40320</duration>
      </backup>
      <note>
        <rest measure="yes" />
        <duration>40320</duration>
        <voice>10</voice>
      </note>
      <backup>
        <duration>40320</duration>
      </backup>
      <note>
        <rest measure="yes" />
        <duration>40320</duration>
        <voice>11</voice>
      </note>
      <backup>
        <duration>40320</duration>
      </backup>
    </measure>
    <!--========================= Measure 2 ==========================-->
    <measure number="2">
      <note dynamics="116.67">
        <pitch>
          <step>C</step>
          <octave>5</octave>
        </pitch>
        <duration>5040</duration>
        <voice>0</voice>
        <type>eighth</type>
        <stem>down</stem>
        <beam number="1">begin</beam>
      </note>
      <note dynamics="88.89">
        <pitch>
          <step>D</step>
          <octave>5</octave>
        </pitch>
        <duration>5040</duration>
        <voice>0</voice>
        <type>eighth</type>
        <stem>down</stem>
        <beam number="1">end</beam>
      </note>
      <note dynamics="88.89">
        <pitch>
          <step>D</step>
          <octave>5</octave>
        </pitch>
        <duration>5040</duration>
        <voice>0</voice>
        <type>eighth</type>
        <stem>down</stem>
        <beam number="1">begin</beam>
      </note>
      <note dynamics="88.89">
        <pitch>
          <step>C</step>
          <octave>5</octave>
        </pitch>
        <duration>5040</duration>
        <voice>0</voice>
        <type>eighth</type>
        <stem>down</stem>
        <beam number="1">end</beam>
      </note>
      <note dynamics="105.56">
        <pitch>
          <step>C</step>
          <octave>5</octave>
        </pitch>
        <duration>5040</duration>
        <voice>0</voice>
        <type>eighth</type>
        <stem>down</stem>
        <beam number="1">begin</beam>
      </note>
      <note dynamics="88.89">
        <pitch>
          <step>A</step>
          <octave>4</octave>
        </pitch>
        <duration>5040</duration>
        <voice>0</voice>
        <type>eighth</type>
        <stem>down</stem>
        <beam number="1">end</beam>
      </note>
      <note dynamics="88.89">
        <pitch>
          <step>G</step>
          <octave>4</octave>
        </pitch>
        <duration>5040</duration>
        <voice>0</voice>
        <type>eighth</type>
        <stem>up</stem>
        <beam number="1">begin</beam>
      </note>
      <note dynamics="88.89">
        <pitch>
          <step>E</step>
          <octave>4</octave>
        </pitch>
        <duration>5040</duration>
        <voice>0</voice>
        <type>eighth</type>
        <stem>up</stem>
        <beam number="1">end</beam>
      </note>
      <backup>
        <duration>40320</duration>
      </backup>
      <note>
        <rest measure="yes" />
        <duration>40320</duration>
        <voice>1</voice>
      </note>
      <backup>
        <duration>40320</duration>
      </backup>
      <note>
        <rest measure="yes" />
        <duration>40320</duration>
        <voice>2</voice>
      </note>
      <backup>
        <duration>40320</duration>
      </backup>
      <note>
        <rest measure="yes" />
        <duration>40320</duration>
        <voice>3</voice>
      </note>
      <backup>
        <duration>40320</duration>
      </backup>
      <note>
        <rest measure="yes" />
        <duration>40320</duration>
        <voice>4</voice>
      </note>
      <backup>
        <duration>40320</duration>
      </backup>
      <note>
        <rest measure="yes" />
        <duration>40320</duration>
        <voice>5</voice>
      </note>
      <backup>
        <duration>40320</duration>
      </backup>
      <note>
        <rest measure="yes" />
        <duration>40320</duration>
        <voice>6</voice>
      </note>
      <backup>
        <duration>40320</duration>
      </backup>
      <note>
        <rest measure="yes" />
        <duration>40320</duration>
        <voice>7</voice>
      </note>
      <backup>
        <duration>40320</duration>
      </backup>
      <note>
        <rest measure="yes" />
        <duration>40320</duration>
        <voice>8</voice>
      </note>
      <backup>
        <duration>40320</duration>
      </backup>
      <note>
        <rest measure="yes" />
        <duration>40320</duration>
        <voice>9</voice>
      </note>
      <backup>
        <duration>40320</duration>
      </backup>
      <note>
        <rest measure="yes" />
        <duration>40320</duration>
        <voice>10</voice>
      </note>
      <backup>
        <duration>40320</duration>
      </backup>
      <note>
        <rest measure="yes" />
        <duration>40320</duration>
        <voice>11</voice>
      </note>
      <backup>
        <duration>40320</duration>
      </backup>
    </measure>
    <!--========================= Measure 3 ==========================-->
    <measure number="3">
      <note dynamics="116.67">
        <pitch>
          <step>D</step>
          <octave>4</octave>
        </pitch>
        <duration>10080</duration>
        <voice>0</voice>
        <type>quarter</type>
      </note>
      <note dynamics="88.89">
        <pitch>
          <step>A</step>
          <octave>4</octave>
        </pitch>
        <duration>5040</duration>
        <voice>0</voice>
        <type>eighth</type>
        <stem>up</stem>
        <beam number="1">begin</beam>
      </note>
      <note dynamics="88.89">
        <pitch>
          <step>D</step>
          <octave>4</octave>
        </pitch>
        <duration>5040</duration>
        <voice>0</voice>
        <type>eighth</type>
        <stem>up</stem>
        <beam number="1">end</beam>
      </note>
      <note dynamics="105.56">
        <pitch>
          <step>E</step>
          <octave>4</octave>
        </pitch>
        <duration>3360</duration>
        <voice>0</voice>
        <type>eighth</type>
        <time-modification>
          <actual-notes>3</actual-notes>
          <normal-notes>2</normal-notes>
          <normal-type>eighth</normal-type>
        </time-modification>
        <stem>up</stem>
        <beam number="1">begin</beam>
      </note>
      <note dynamics="88.89">
        <pitch>
          <step>F</step>
          <alter>1</alter>
          <octave>4</octave>
        </pitch>
        <duration>3360</duration>
        <voice>0</voice>
        <type>eighth</type>
        <time-modification>
          <actual-notes>3</actual-notes>
          <normal-notes>2</normal-notes>
          <normal-type>eighth</normal-type>
        </time-modification>
        <stem>up</stem>
        <beam number="1">continue</beam>
      </note>
      <note dynamics="88.89">
        <pitch>
          <step>G</step>
          <octave>4</octave>
        </pitch>
        <duration>3360</duration>
        <voice>0</voice>
        <type>eighth</type>
        <time-modification>
          <actual-notes>3</actual-notes>
          <normal-notes>2</normal-notes>
          <normal-type>eighth</normal-type>
        </time-modification>
        <stem>up</stem>
        <beam number="1">end</beam>
      </note>
      <note dynamics="88.89">
        <pitch>
          <step>A</step>
          <octave>4</octave>
        </pitch>
        <duration>5040</duration>
        <voice>0</voice>
        <type>eighth</type>
        <stem>up</stem>
        <beam number="1">begin</beam>
      </note>
      <note dynamics="88.89">
        <pitch>
          <step>B</step>
          <octave>4</octave>
        </pitch>
        <duration>5040</duration>
        <voice>0</voice>
        <type>eighth</type>
        <stem>up</stem>
        <beam number="1">end</beam>
      </note>
      <backup>
        <duration>40320</duration>
      </backup>
      <note>
        <rest measure="yes" />
        <duration>40320</duration>
        <voice>1</voice>
      </note>
      <backup>
        <duration>40320</duration>
      </backup>
      <note>
        <rest measure="yes" />
        <duration>40320</duration>
        <voice>2</voice>
      </note>
      <backup>
        <duration>40320</duration>
      </backup>
      <note>
        <rest measure="yes" />
        <duration>40320</duration>
        <voice>3</voice>
      </note>
      <backup>
        <duration>40320</duration>
      </backup>
      <note>
        <rest measure="yes" />
        <duration>40320</duration>
        <voice>4</voice>
      </note>
      <backup>
        <duration>40320</duration>
      </backup>
      <note>
        <rest measure="yes" />
        <duration>40320</duration>
        <voice>5</voice>
      </note>
      <backup>
        <duration>40320</duration>
      </backup>
      <note>
        <rest measure="yes" />
        <duration>40320</duration>
        <voice>6</voice>
      </note>
      <backup>
        <duration>40320</duration>
      </backup>
      <note>
        <rest measure="yes" />
        <duration>40320</duration>
        <voice>7</voice>
      </note>
      <backup>
        <duration>40320</duration>
      </backup>
      <note>
        <rest measure="yes" />
        <duration>40320</duration>
        <voice>8</voice>
      </note>
      <backup>
        <duration>40320</duration>
      </backup>
      <note>
        <rest measure="yes" />
        <duration>40320</duration>
        <voice>9</voice>
      </note>
      <backup>
        <duration>40320</duration>
      </backup>
      <note>
        <rest measure="yes" />
        <duration>40320</duration>
        <voice>10</voice>
      </note>
      <backup>
        <duration>40320</duration>
      </backup>
      <note>
        <rest measure="yes" />
        <duration>40320</duration>
        <voice>11</voice>
      </note>
      <backup>
        <duration>40320</duration>
      </backup>
    </measure>
    <!--========================= Measure 4 ==========================-->
    <measure number="4">
      <note dynamics="116.67">
        <pitch>
          <step>C</step>
          <octave>5</octave>
        </pitch>
        <duration>5040</duration>
        <voice>0</voice>
        <type>eighth</type>
        <stem>down</stem>
        <beam number="1">begin</beam>
      </note>
      <note dynamics="88.89">
        <pitch>
          <step>A</step>
          <octave>4</octave>
        </pitch>
        <duration>5040</duration>
        <voice>0</voice>
        <type>eighth</type>
        <stem>down</stem>
        <beam number="1">end</beam>
      </note>
      <note dynamics="88.89">
        <pitch>
          <step>G</step>
          <octave>4</octave>
        </pitch>
        <duration>5040</duration>
        <voice>0</voice>
        <type>eighth</type>
        <stem>up</stem>
        <beam number="1">begin</beam>
      </note>
      <note dynamics="88.89">
        <pitch>
          <step>E</step>
          <octave>4</octave>
        </pitch>
        <duration>5040</duration>
        <voice>0</voice>
        <type>eighth</type>
        <stem>up</stem>
        <beam number="1">end</beam>
      </note>
      <note dynamics="105.56">
        <pitch>
          <step>E</step>
          <octave>4</octave>
        </pitch>
        <duration>5040</duration>
        <voice>0</voice>
        <type>eighth</type>
        <stem>up</stem>
        <beam number="1">begin</beam>
      </note>
      <note dynamics="88.89">
        <pitch>
          <step>D</step>
          <octave>4</octave>
        </pitch>
        <duration>5040</duration>
        <voice>0</voice>
        <type>eighth</type>
        <stem>up</stem>
        <beam number="1">end</beam>
      </note>
      <note dynamics="88.89">
        <pitch>
          <step>A</step>
          <octave>4</octave>
        </pitch>
        <duration>5040</duration>
        <voice>0</voice>
        <type>eighth</type>
        <stem>up</stem>
        <beam number="1">begin</beam>
      </note>
      <note dynamics="88.89">
        <pitch>
          <step>F</step>
          <alter>1</alter>
          <octave>4</octave>
        </pitch>
        <duration>5040</duration>
        <voice>0</voice>
        <type>eighth</type>
        <stem>up</stem>
        <beam number="1">end</beam>
      </note>
      <backup>
        <duration>40320</duration>
      </backup>
      <note>
        <rest measure="yes" />
        <duration>40320</duration>
        <voice>1</voice>
      </note>
      <backup>
        <duration>40320</duration>
      </backup>
      <note>
        <rest measure="yes" />
        <duration>40320</duration>
        <voice>2</voice>
      </note>
      <backup>
        <duration>40320</duration>
      </backup>
      <note>
        <rest measure="yes" />
        <duration>40320</duration>
        <voice>3</voice>
      </note>
      <backup>
        <duration>40320</duration>
      </backup>
      <note>
        <rest measure="yes" />
        <duration>40320</duration>
        <voice>4</voice>
      </note>
      <backup>
        <duration>40320</duration>
      </backup>
      <note>
        <rest measure="yes" />
        <duration>40320</duration>
        <voice>5</voice>
      </note>
      <backup>
        <duration>40320</duration>
      </backup>
      <note>
        <rest measure="yes" />
        <duration>40320</duration>
        <voice>6</voice>
      </note>
      <backup>
        <duration>40320</duration>
      </backup>
      <note>
        <rest measure="yes" />
        <duration>40320</duration>
        <voice>7</voice>
      </note>
      <backup>
        <duration>40320</duration>
      </backup>
      <note>
        <rest measure="yes" />
        <duration>40320</duration>
        <voice>8</voice>
      </note>
      <backup>
        <duration>40320</duration>
      </backup>
      <note>
        <rest measure="yes" />
        <duration>40320</duration>
        <voice>9</voice>
      </note>
      <backup>
        <duration>40320</duration>
      </backup>
      <note>
        <rest measure="yes" />
        <duration>40320</duration>
        <voice>10</voice>
      </note>
      <backup>
        <duration>40320</duration>
      </backup>
      <note>
        <rest measure="yes" />
        <duration>40320</duration>
        <voice>11</voice>
      </note>
      <backup>
        <duration>40320</duration>
      </backup>
    </measure>
    <!--========================= Measure 5 ==========================-->
    <measure number="5">
      <note dynamics="116.67">
        <pitch>
          <step>D</step>
          <octave>4</octave>
        </pitch>
        <duration>10080</duration>
        <voice>0</voice>
        <type>quarter</type>
      </note>
      <note dynamics="88.89">
        <pitch>
          <step>A</step>
          <octave>4</octave>
        </pitch>
        <duration>5040</duration>
        <voice>0</voice>
        <type>eighth</type>
        <stem>up</stem>
        <beam number="1">begin</beam>
      </note>
      <note dynamics="88.89">
        <pitch>
          <step>D</step>
          <octave>4</octave>
        </pitch>
        <duration>5040</duration>
        <voice>0</voice>
        <type>eighth</type>
        <stem>up</stem>
        <beam number="1">end</beam>
      </note>
      <note dynamics="105.56">
        <pitch>
          <step>E</step>
          <octave>4</octave>
        </pitch>
        <duration>3360</duration>
        <voice>0</voice>
        <type>eighth</type>
        <time-modification>
          <actual-notes>3</actual-notes>
          <normal-notes>2</normal-notes>
          <normal-type>eighth</normal-type>
        </time-modification>
        <stem>up</stem>
        <beam number="1">begin</beam>
      </note>
      <note dynamics="88.89">
        <pitch>
          <step>F</step>
          <alter>1</alter>
          <octave>4</octave>
        </pitch>
        <duration>3360</duration>
        <voice>0</voice>
        <type>eighth</type>
        <time-modification>
          <actual-notes>3</actual-notes>
          <normal-notes>2</normal-notes>
          <normal-type>eighth</normal-type>
        </time-modification>
        <stem>up</stem>
        <beam number="1">continue</beam>
      </note>
      <note dynamics="88.89">
        <pitch>
          <step>G</step>
          <octave>4</octave>
        </pitch>
        <duration>3360</duration>
        <voice>0</voice>
        <type>eighth</type>
        <time-modification>
          <actual-notes>3</actual-notes>
          <normal-notes>2</normal-notes>
          <normal-type>eighth</normal-type>
        </time-modification>
        <stem>up</stem>
        <beam number="1">end</beam>
      </note>
      <note dynamics="88.89">
        <pitch>
          <step>A</step>
          <octave>4</octave>
        </pitch>
        <duration>5040</duration>
        <voice>0</voice>
        <type>eighth</type>
        <stem>up</stem>
        <beam number="1">begin</beam>
      </note>
      <note dynamics="88.89">
        <pitch>
          <step>B</step>
          <octave>4</octave>
        </pitch>
        <duration>5040</duration>
        <voice>0</voice>
        <type>eighth</type>
        <stem>up</stem>
        <beam number="1">end</beam>
      </note>
      <backup>
        <duration>40320</duration>
      </backup>
      <note>
        <rest measure="yes" />
        <duration>40320</duration>
        <voice>1</voice>
      </note>
      <backup>
        <duration>40320</duration>
      </backup>
      <note>
        <rest measure="yes" />
        <duration>40320</duration>
        <voice>2</voice>
      </note>
      <backup>
        <duration>40320</duration>
      </backup>
      <note>
        <rest measure="yes" />
        <duration>40320</duration>
        <voice>3</voice>
      </note>
      <backup>
        <duration>40320</duration>
      </backup>
      <note>
        <rest measure="yes" />
        <duration>40320</duration>
        <voice>4</voice>
      </note>
      <backup>
        <duration>40320</duration>
      </backup>
      <note>
        <rest measure="yes" />
        <duration>40320</duration>
        <voice>5</voice>
      </note>
      <backup>
        <duration>40320</duration>
      </backup>
      <note>
        <rest measure="yes" />
        <duration>40320</duration>
        <voice>6</voice>
      </note>
      <backup>
        <duration>40320</duration>
      </backup>
      <note>
        <rest measure="yes" />
        <duration>40320</duration>
        <voice>7</voice>
      </note>
      <backup>
        <duration>40320</duration>
      </backup>
      <note>
        <rest measure="yes" />
        <duration>40320</duration>
        <voice>8</voice>
      </note>
      <backup>
        <duration>40320</duration>
      </backup>
      <note>
        <rest measure="yes" />
        <duration>40320</duration>
        <voice>9</voice>
      </note>
      <backup>
        <duration>40320</duration>
      </backup>
      <note>
        <rest measure="yes" />
        <duration>40320</duration>
        <voice>10</voice>
      </note>
      <backup>
        <duration>40320</duration>
      </backup>
      <note>
        <rest measure="yes" />
        <duration>40320</duration>
        <voice>11</voice>
      </note>
      <backup>
        <duration>40320</duration>
      </backup>
    </measure>
    <!--========================= Measure 6 ==========================-->
    <measure number="6">
      <note dynamics="116.67">
        <pitch>
          <step>C</step>
          <octave>5</octave>
        </pitch>
        <duration>5040</duration>
        <voice>0</voice>
        <type>eighth</type>
        <stem>down</stem>
        <beam number="1">begin</beam>
      </note>
      <note dynamics="88.89">
        <pitch>
          <step>D</step>
          <octave>5</octave>
        </pitch>
        <duration>5040</duration>
        <voice>0</voice>
        <type>eighth</type>
        <stem>down</stem>
        <beam number="1">end</beam>
      </note>
      <note dynamics="88.89">
        <pitch>
          <step>D</step>
          <octave>5</octave>
        </pitch>
        <duration>5040</duration>
        <voice>0</voice>
        <type>eighth</type>
        <stem>down</stem>
        <beam number="1">begin</beam>
      </note>
      <note dynamics="88.89">
        <pitch>
          <step>C</step>
          <octave>5</octave>
        </pitch>
        <duration>5040</duration>
        <voice>0</voice>
        <type>eighth</type>
        <stem>down</stem>
        <beam number="1">end</beam>
      </note>
      <note dynamics="105.56">
        <pitch>
          <step>C</step>
          <octave>5</octave>
        </pitch>
        <duration>5040</duration>
        <voice>0</voice>
        <type>eighth</type>
        <stem>down</stem>
        <beam number="1">begin</beam>
      </note>
      <note dynamics="88.89">
        <pitch>
          <step>A</step>
          <octave>4</octave>
        </pitch>
        <duration>5040</duration>
        <voice>0</voice>
        <type>eighth</type>
        <stem>down</stem>
        <beam number="1">end</beam>
      </note>
      <note dynamics="88.89">
        <pitch>
          <step>G</step>
          <octave>4</octave>
        </pitch>
        <duration>5040</duration>
        <voice>0</voice>
        <type>eighth</type>
        <stem>up</stem>
        <beam number="1">begin</beam>
      </note>
      <note dynamics="88.89">
        <pitch>
          <step>E</step>
          <octave>4</octave>
        </pitch>
        <duration>5040</duration>
        <voice>0</voice>
        <type>eighth</type>
        <stem>up</stem>
        <beam number="1">end</beam>
      </note>
      <backup>
        <duration>40320</duration>
      </backup>
      <note>
        <rest measure="yes" />
        <duration>40320</duration>
        <voice>1</voice>
      </note>
      <backup>
        <duration>40320</duration>
      </backup>
      <note>
        <rest measure="yes" />
        <duration>40320</duration>
        <voice>2</voice>
      </note>
      <backup>
        <duration>40320</duration>
      </backup>
      <note>
        <rest measure="yes" />
        <duration>40320</duration>
        <voice>3</voice>
      </note>
      <backup>
        <duration>40320</duration>
      </backup>
      <note>
        <rest measure="yes" />
        <duration>40320</duration>
        <voice>4</voice>
      </note>
      <backup>
        <duration>40320</duration>
      </backup>
      <note>
        <rest measure="yes" />
        <duration>40320</duration>
        <voice>5</voice>
      </note>
      <backup>
        <duration>40320</duration>
      </backup>
      <note>
        <rest measure="yes" />
        <duration>40320</duration>
        <voice>6</voice>
      </note>
      <backup>
        <duration>40320</duration>
      </backup>
      <note>
        <rest measure="yes" />
        <duration>40320</duration>
        <voice>7</voice>
      </note>
      <backup>
        <duration>40320</duration>
      </backup>
      <note>
        <rest measure="yes" />
        <duration>40320</duration>
        <voice>8</voice>
      </note>
      <backup>
        <duration>40320</duration>
      </backup>
      <note>
        <rest measure="yes" />
        <duration>40320</duration>
        <voice>9</voice>
      </note>
      <backup>
        <duration>40320</duration>
      </backup>
      <note>
        <rest measure="yes" />
        <duration>40320</duration>
        <voice>10</voice>
      </note>
      <backup>
        <duration>40320</duration>
      </backup>
      <note>
        <rest measure="yes" />
        <duration>40320</duration>
        <voice>11</voice>
      </note>
      <backup>
        <duration>40320</duration>
      </backup>
    </measure>
    <!--========================= Measure 7 ==========================-->
    <measure number="7">
      <note dynamics="116.67">
        <pitch>
          <step>D</step>
          <octave>4</octave>
        </pitch>
        <duration>10080</duration>
        <voice>0</voice>
        <type>quarter</type>
      </note>
      <note dynamics="88.89">
        <pitch>
          <step>A</step>
          <octave>4</octave>
        </pitch>
        <duration>5040</duration>
        <voice>0</voice>
        <type>eighth</type>
        <stem>up</stem>
        <beam number="1">begin</beam>
      </note>
      <note dynamics="88.89">
        <pitch>
          <step>D</step>
          <octave>4</octave>
        </pitch>
        <duration>5040</duration>
        <voice>0</voice>
        <type>eighth</type>
        <stem>up</stem>
        <beam number="1">end</beam>
      </note>
      <note dynamics="105.56">
        <pitch>
          <step>E</step>
          <octave>4</octave>
        </pitch>
        <duration>3360</duration>
        <voice>0</voice>
        <type>eighth</type>
        <time-modification>
          <actual-notes>3</actual-notes>
          <normal-notes>2</normal-notes>
          <normal-type>eighth</normal-type>
        </time-modification>
        <stem>up</stem>
        <beam number="1">begin</beam>
      </note>
      <note dynamics="88.89">
        <pitch>
          <step>F</step>
          <alter>1</alter>
          <octave>4</octave>
        </pitch>
        <duration>3360</duration>
        <voice>0</voice>
        <type>eighth</type>
        <time-modification>
          <actual-notes>3</actual-notes>
          <normal-notes>2</normal-notes>
          <normal-type>eighth</normal-type>
        </time-modification>
        <stem>up</stem>
        <beam number="1">continue</beam>
      </note>
      <note dynamics="88.89">
        <pitch>
          <step>G</step>
          <octave>4</octave>
        </pitch>
        <duration>3360</duration>
        <voice>0</voice>
        <type>eighth</type>
        <time-modification>
          <actual-notes>3</actual-notes>
          <normal-notes>2</normal-notes>
          <normal-type>eighth</normal-type>
        </time-modification>
        <stem>up</stem>
        <beam number="1">end</beam>
      </note>
      <note dynamics="88.89">
        <pitch>
          <step>A</step>
          <octave>4</octave>
        </pitch>
        <duration>5040</duration>
        <voice>0</voice>
        <type>eighth</type>
        <stem>up</stem>
        <beam number="1">begin</beam>
      </note>
      <note dynamics="88.89">
        <pitch>
          <step>B</step>
          <octave>4</octave>
        </pitch>
        <duration>5040</duration>
        <voice>0</voice>
        <type>eighth</type>
        <stem>up</stem>
        <beam number="1">end</beam>
      </note>
      <backup>
        <duration>40320</duration>
      </backup>
      <note>
        <rest measure="yes" />
        <duration>40320</duration>
        <voice>1</voice>
      </note>
      <backup>
        <duration>40320</duration>
      </backup>
      <note>
        <rest measure="yes" />
        <duration>40320</duration>
        <voice>2</voice>
      </note>
      <backup>
        <duration>40320</duration>
      </backup>
      <note>
        <rest measure="yes" />
        <duration>40320</duration>
        <voice>3</voice>
      </note>
      <backup>
        <duration>40320</duration>
      </backup>
      <note>
        <rest measure="yes" />
        <duration>40320</duration>
        <voice>4</voice>
      </note>
      <backup>
        <duration>40320</duration>
      </backup>
      <note>
        <rest measure="yes" />
        <duration>40320</duration>
        <voice>5</voice>
      </note>
      <backup>
        <duration>40320</duration>
      </backup>
      <note>
        <rest measure="yes" />
        <duration>40320</duration>
        <voice>6</voice>
      </note>
      <backup>
        <duration>40320</duration>
      </backup>
      <note>
        <rest measure="yes" />
        <duration>40320</duration>
        <voice>7</voice>
      </note>
      <backup>
        <duration>40320</duration>
      </backup>
      <note>
        <rest measure="yes" />
        <duration>40320</duration>
        <voice>8</voice>
      </note>
      <backup>
        <duration>40320</duration>
      </backup>
      <note>
        <rest measure="yes" />
        <duration>40320</duration>
        <voice>9</voice>
      </note>
      <backup>
        <duration>40320</duration>
      </backup>
      <note>
        <rest measure="yes" />
        <duration>40320</duration>
        <voice>10</voice>
      </note>
      <backup>
        <duration>40320</duration>
      </backup>
      <note>
        <rest measure="yes" />
        <duration>40320</duration>
        <voice>11</voice>
      </note>
      <backup>
        <duration>40320</duration>
      </backup>
    </measure>
    <!--========================= Measure 8 ==========================-->
    <measure number="8">
      <note>
        <pitch>
          <step>C</step>
          <octave>5</octave>
        </pitch>
        <duration>26880</duration>
        <voice>0</voice>
        <type>whole</type>
        <time-modification>
          <actual-notes>3</actual-notes>
          <normal-notes>2</normal-notes>
          <normal-type>whole</normal-type>
        </time-modification>
      </note>
      <note>
        <chord />
        <pitch>
          <step>A</step>
          <octave>4</octave>
        </pitch>
        <duration>26880</duration>
        <voice>0</voice>
        <type>whole</type>
        <time-modification>
          <actual-notes>3</actual-notes>
          <normal-notes>2</normal-notes>
          <normal-type>whole</normal-type>
        </time-modification>
      </note>
      <note>
        <chord />
        <pitch>
          <step>G</step>
          <octave>4</octave>
        </pitch>
        <duration>26880</duration>
        <voice>0</voice>
        <type>whole</type>
        <time-modification>
          <actual-notes>3</actual-notes>
          <normal-notes>2</normal-notes>
          <normal-type>whole</normal-type>
        </time-modification>
      </note>
      <note>
        <chord />
        <pitch>
          <step>E</step>
          <octave>4</octave>
        </pitch>
        <duration>26880</duration>
        <voice>0</voice>
        <type>whole</type>
        <time-modification>
          <actual-notes>3</actual-notes>
          <normal-notes>2</normal-notes>
          <normal-type>whole</normal-type>
        </time-modification>
      </note>
      <note>
        <rest />
        <duration>840</duration>
        <voice>0</voice>
        <type>32nd</type>
        <time-modification>
          <actual-notes>3</actual-notes>
          <normal-notes>2</normal-notes>
          <normal-type>32nd</normal-type>
        </time-modification>
      </note>
      <backup>
        <duration>27720</duration>
      </backup>
      <note>
        <pitch>
          <step>E</step>
          <octave>4</octave>
        </pitch>
        <duration>20160</duration>
        <tie type="start" />
        <voice>1</voice>
        <type>half</type>
        <notations>
          <tied type="start" />
        </notations>
      </note>
      <note>
        <chord />
        <pitch>
          <step>D</step>
          <octave>4</octave>
        </pitch>
        <duration>20160</duration>
        <tie type="start" />
        <voice>1</voice>
        <type>half</type>
        <notations>
          <tied type="start" />
        </notations>
      </note>
      <note>
        <chord />
        <pitch>
          <step>F</step>
          <alter>1</alter>
          <octave>4</octave>
        </pitch>
        <duration>20160</duration>
        <tie type="start" />
        <voice>1</voice>
        <type>half</type>
        <notations>
          <tied type="start" />
        </notations>
      </note>
      <note>
        <chord />
        <pitch>
          <step>A</step>
          <octave>4</octave>
        </pitch>
        <duration>20160</duration>
        <tie type="start" />
        <voice>1</voice>
        <type>half</type>
        <notations>
          <tied type="start" />
        </notations>
      </note>
      <note>
        <pitch>
          <step>E</step>
          <octave>4</octave>
        </pitch>
        <duration>5040</duration>
        <tie type="stop" />
        <voice>1</voice>
        <type>eighth</type>
        <notations>
          <tied type="stop" />
        </notations>
      </note>
      <note>
        <chord />
        <pitch>
          <step>D</step>
          <octave>4</octave>
        </pitch>
        <duration>5040</duration>
        <tie type="stop" />
        <voice>1</voice>
        <type>eighth</type>
        <notations>
          <tied type="stop" />
        </notations>
      </note>
      <note>
        <chord />
        <pitch>
          <step>F</step>
          <alter>1</alter>
          <octave>4</octave>
        </pitch>
        <duration>5040</duration>
        <tie type="stop" />
        <voice>1</voice>
        <type>eighth</type>
        <notations>
          <tied type="stop" />
        </notations>
      </note>
      <note>
        <chord />
        <pitch>
          <step>A</step>
          <octave>4</octave>
        </pitch>
        <duration>5040</duration>
        <tie type="stop" />
        <voice>1</voice>
        <type>eighth</type>
        <notations>
          <tied type="stop" />
        </notations>
      </note>
      <note>
        <rest />
        <duration>1680</duration>
        <voice>1</voice>
        <type>16th</type>
        <time-modification>
          <actual-notes>3</actual-notes>
          <normal-notes>2</normal-notes>
          <normal-type>16th</normal-type>
        </time-modification>
      </note>
      <note>
        <rest />
        <duration>840</duration>
        <voice>1</voice>
        <type>32nd</type>
        <time-modification>
          <actual-notes>3</actual-notes>
          <normal-notes>2</normal-notes>
          <normal-type>32nd</normal-type>
        </time-modification>
      </note>
      <backup>
        <duration>27720</duration>
      </backup>
      <note>
        <rest />
        <duration>2520</duration>
        <voice>2</voice>
        <type>16th</type>
      </note>
      <note>
        <pitch>
          <step>D</step>
          <octave>5</octave>
        </pitch>
        <duration>20160</duration>
        <tie type="start" />
        <voice>2</voice>
        <type>half</type>
        <notations>
          <tied type="start" />
        </notations>
      </note>
      <note>
        <chord />
        <pitch>
          <step>D</step>
          <octave>5</octave>
        </pitch>
        <duration>20160</duration>
        <tie type="start" />
        <voice>2</voice>
        <type>half</type>
        <notations>
          <tied type="start" />
        </notations>
      </note>
      <note>
        <chord />
        <pitch>
          <step>E</step>
          <octave>5</octave>
        </pitch>
        <duration>20160</duration>
        <tie type="start" />
        <voice>2</voice>
        <type>half</type>
        <notations>
          <tied type="start" />
        </notations>
      </note>
      <note>
        <chord />
        <pitch>
          <step>D</step>
          <octave>5</octave>
        </pitch>
        <duration>20160</duration>
        <tie type="start" />
        <voice>2</voice>
        <type>half</type>
        <notations>
          <tied type="start" />
        </notations>
      </note>
      <note>
        <pitch>
          <step>D</step>
          <octave>5</octave>
        </pitch>
        <duration>5040</duration>
        <tie type="stop" />
        <voice>2</voice>
        <type>eighth</type>
        <notations>
          <tied type="stop" />
        </notations>
      </note>
      <note>
        <chord />
        <pitch>
          <step>D</step>
          <octave>5</octave>
        </pitch>
        <duration>5040</duration>
        <tie type="stop" />
        <voice>2</voice>
        <type>eighth</type>
        <notations>
          <tied type="stop" />
        </notations>
      </note>
      <note>
        <chord />
        <pitch>
          <step>E</step>
          <octave>5</octave>
        </pitch>
        <duration>5040</duration>
        <tie type="stop" />
        <voice>2</voice>
        <type>eighth</type>
        <notations>
          <tied type="stop" />
        </notations>
      </note>
      <note>
        <chord />
        <pitch>
          <step>D</step>
          <octave>5</octave>
        </pitch>
        <duration>5040</duration>
        <tie type="stop" />
        <voice>2</voice>
        <type>eighth</type>
        <notations>
          <tied type="stop" />
        </notations>
      </note>
      <backup>
        <duration>27720</duration>
      </backup>
      <note>
        <rest />
        <duration>2520</duration>
        <voice>3</voice>
        <type>16th</type>
      </note>
      <note>
        <pitch>
          <step>C</step>
          <octave>5</octave>
        </pitch>
        <duration>23520</duration>
        <voice>3</voice>
        <type>whole</type>
        <time-modification>
          <actual-notes>12</actual-notes>
          <normal-notes>7</normal-notes>
          <normal-type>16th</normal-type>
        </time-modification>
      </note>
      <note>
        <chord />
        <pitch>
          <step>A</step>
          <octave>4</octave>
        </pitch>
        <duration>23520</duration>
        <voice>3</voice>
        <type>whole</type>
        <time-modification>
          <actual-notes>12</actual-notes>
          <normal-notes>7</normal-notes>
          <normal-type>16th</normal-type>
        </time-modification>
      </note>
      <note>
        <chord />
        <pitch>
          <step>B</step>
          <octave>4</octave>
        </pitch>
        <duration>23520</duration>
        <voice>3</voice>
        <type>whole</type>
        <time-modification>
          <actual-notes>12</actual-notes>
          <normal-notes>7</normal-notes>
          <normal-type>16th</normal-type>
        </time-modification>
      </note>
      <note>
        <chord />
        <pitch>
          <step>C</step>
          <octave>5</octave>
        </pitch>
        <duration>23520</duration>
        <voice>3</voice>
        <type>whole</type>
        <time-modification>
          <actual-notes>12</actual-notes>
          <normal-notes>7</normal-notes>
          <normal-type>16th</normal-type>
        </time-modification>
      </note>
      <note>
        <rest />
        <duration>1680</duration>
        <voice>3</voice>
        <type>16th</type>
        <time-modification>
          <actual-notes>3</actual-notes>
          <normal-notes>2</normal-notes>
          <normal-type>16th</normal-type>
        </time-modification>
      </note>
      <backup>
        <duration>27720</duration>
      </backup>
      <note>
        <rest />
        <duration>3360</duration>
        <voice>4</voice>
        <type>eighth</type>
        <time-modification>
          <actual-notes>3</actual-notes>
          <normal-notes>2</normal-notes>
          <normal-type>eighth</normal-type>
        </time-modification>
      </note>
      <note>
        <pitch>
          <step>D</step>
          <octave>5</octave>
        </pitch>
        <duration>23520</duration>
        <voice>4</voice>
        <type>whole</type>
        <time-modification>
          <actual-notes>12</actual-notes>
          <normal-notes>7</normal-notes>
          <normal-type>16th</normal-type>
        </time-modification>
      </note>
      <note>
        <chord />
        <pitch>
          <step>E</step>
          <octave>5</octave>
        </pitch>
        <duration>23520</duration>
        <voice>4</voice>
        <type>whole</type>
        <time-modification>
          <actual-notes>12</actual-notes>
          <normal-notes>7</normal-notes>
          <normal-type>16th</normal-type>
        </time-modification>
      </note>
      <note>
        <chord />
        <pitch>
          <step>D</step>
          <octave>5</octave>
        </pitch>
        <duration>23520</duration>
        <voice>4</voice>
        <type>whole</type>
        <time-modification>
          <actual-notes>12</actual-notes>
          <normal-notes>7</normal-notes>
          <normal-type>16th</normal-type>
        </time-modification>
      </note>
      <note>
        <chord />
        <pitch>
          <step>C</step>
          <octave>5</octave>
        </pitch>
        <duration>23520</duration>
        <voice>4</voice>
        <type>whole</type>
        <time-modification>
          <actual-notes>12</actual-notes>
          <normal-notes>7</normal-notes>
          <normal-type>16th</normal-type>
        </time-modification>
      </note>
      <note>
        <rest />
        <duration>840</duration>
        <voice>4</voice>
        <type>32nd</type>
        <time-modification>
          <actual-notes>3</actual-notes>
          <normal-notes>2</normal-notes>
          <normal-type>32nd</normal-type>
        </time-modification>
      </note>
      <backup>
        <duration>27720</duration>
      </backup>
      <note>
        <rest />
        <duration>5040</duration>
        <voice>5</voice>
        <type>eighth</type>
      </note>
      <note>
        <pitch>
          <step>A</step>
          <octave>4</octave>
        </pitch>
        <duration>20160</duration>
        <tie type="start" />
        <voice>5</voice>
        <type>half</type>
        <notations>
          <tied type="start" />
        </notations>
      </note>
      <note>
        <chord />
        <pitch>
          <step>G</step>
          <octave>4</octave>
        </pitch>
        <duration>20160</duration>
        <tie type="start" />
        <voice>5</voice>
        <type>half</type>
        <notations>
          <tied type="start" />
        </notations>
      </note>
      <note>
        <chord />
        <pitch>
          <step>A</step>
          <octave>4</octave>
        </pitch>
        <duration>20160</duration>
        <tie type="start" />
        <voice>5</voice>
        <type>half</type>
        <notations>
          <tied type="start" />
        </notations>
      </note>
      <note>
        <chord />
        <pitch>
          <step>D</step>
          <octave>5</octave>
        </pitch>
        <duration>20160</duration>
        <tie type="start" />
        <voice>5</voice>
        <type>half</type>
        <notations>
          <tied type="start" />
        </notations>
      </note>
      <note>
        <pitch>
          <step>A</step>
          <octave>4</octave>
        </pitch>
        <duration>2520</duration>
        <tie type="stop" />
        <voice>5</voice>
        <type>16th</type>
        <notations>
          <tied type="stop" />
        </notations>
      </note>
      <note>
        <chord />
        <pitch>
          <step>G</step>
          <octave>4</octave>
        </pitch>
        <duration>2520</duration>
        <tie type="stop" />
        <voice>5</voice>
        <type>16th</type>
        <notations>
          <tied type="stop" />
        </notations>
      </note>
      <note>
        <chord />
        <pitch>
          <step>A</step>
          <octave>4</octave>
        </pitch>
        <duration>2520</duration>
        <tie type="stop" />
        <voice>5</voice>
        <type>16th</type>
        <notations>
          <tied type="stop" />
        </notations>
      </note>
      <note>
        <chord />
        <pitch>
          <step>D</step>
          <octave>5</octave>
        </pitch>
        <duration>2520</duration>
        <tie type="stop" />
        <voice>5</voice>
        <type>16th</type>
        <notations>
          <tied type="stop" />
        </notations>
      </note>
      <backup>
        <duration>27720</duration>
      </backup>
      <note>
        <rest />
        <duration>5040</duration>
        <voice>6</voice>
        <type>eighth</type>
      </note>
      <note>
        <pitch>
          <step>D</step>
          <octave>5</octave>
        </pitch>
        <duration>20160</duration>
        <tie type="start" />
        <voice>6</voice>
        <type>half</type>
        <notations>
          <tied type="start" />
        </notations>
      </note>
      <note>
        <chord />
        <pitch>
          <step>E</step>
          <octave>5</octave>
        </pitch>
        <duration>20160</duration>
        <tie type="start" />
        <voice>6</voice>
        <type>half</type>
        <notations>
          <tied type="start" />
        </notations>
      </note>
      <note>
        <chord />
        <pitch>
          <step>D</step>
          <octave>5</octave>
        </pitch>
        <duration>20160</duration>
        <tie type="start" />
        <voice>6</voice>
        <type>half</type>
        <notations>
          <tied type="start" />
        </notations>
      </note>
      <note>
        <chord />
        <pitch>
          <step>C</step>
          <octave>5</octave>
        </pitch>
        <duration>20160</duration>
        <tie type="start" />
        <voice>6</voice>
        <type>half</type>
        <notations>
          <tied type="start" />
        </notations>
      </note>
      <note>
        <pitch>
          <step>D</step>
          <octave>5</octave>
        </pitch>
        <duration>2520</duration>
        <tie type="stop" />
        <voice>6</voice>
        <type>16th</type>
        <notations>
          <tied type="stop" />
        </notations>
      </note>
      <note>
        <chord />
        <pitch>
          <step>E</step>
          <octave>5</octave>
        </pitch>
        <duration>2520</duration>
        <tie type="stop" />
        <voice>6</voice>
        <type>16th</type>
        <notations>
          <tied type="stop" />
        </notations>
      </note>
      <note>
        <chord />
        <pitch>
          <step>D</step>
          <octave>5</octave>
        </pitch>
        <duration>2520</duration>
        <tie type="stop" />
        <voice>6</voice>
        <type>16th</type>
        <notations>
          <tied type="stop" />
        </notations>
      </note>
      <note>
        <chord />
        <pitch>
          <step>C</step>
          <octave>5</octave>
        </pitch>
        <duration>2520</duration>
        <tie type="stop" />
        <voice>6</voice>
        <type>16th</type>
        <notations>
          <tied type="stop" />
        </notations>
      </note>
      <backup>
        <duration>27720</duration>
      </backup>
      <note>
        <rest />
        <duration>6720</duration>
        <voice>7</voice>
        <type>quarter</type>
        <time-modification>
          <actual-notes>3</actual-notes>
          <normal-notes>2</normal-notes>
          <normal-type>quarter</normal-type>
        </time-modification>
      </note>
      <note>
        <pitch>
          <step>A</step>
          <octave>4</octave>
        </pitch>
        <duration>20160</duration>
        <voice>7</voice>
        <type>half</type>
      </note>
      <note>
        <chord />
        <pitch>
          <step>B</step>
          <octave>4</octave>
        </pitch>
        <duration>20160</duration>
        <voice>7</voice>
        <type>half</type>
      </note>
      <note>
        <chord />
        <pitch>
          <step>C</step>
          <octave>5</octave>
        </pitch>
        <duration>20160</duration>
        <voice>7</voice>
        <type>half</type>
      </note>
      <note>
        <chord />
        <pitch>
          <step>A</step>
          <octave>4</octave>
        </pitch>
        <duration>20160</duration>
        <voice>7</voice>
        <type>half</type>
      </note>
      <note>
        <rest />
        <duration>840</duration>
        <voice>7</voice>
        <type>32nd</type>
        <time-modification>
          <actual-notes>3</actual-notes>
          <normal-notes>2</normal-notes>
          <normal-type>32nd</normal-type>
        </time-modification>
      </note>
      <backup>
        <duration>27720</duration>
      </backup>
      <note>
        <rest />
        <duration>6720</duration>
        <voice>8</voice>
        <type>quarter</type>
        <time-modification>
          <actual-notes>3</actual-notes>
          <normal-notes>2</normal-notes>
          <normal-type>quarter</normal-type>
        </time-modification>
      </note>
      <note>
        <pitch>
          <step>G</step>
          <octave>4</octave>
        </pitch>
        <duration>20160</duration>
        <voice>8</voice>
        <type>half</type>
      </note>
      <note>
        <chord />
        <pitch>
          <step>E</step>
          <octave>4</octave>
        </pitch>
        <duration>20160</duration>
        <voice>8</voice>
        <type>half</type>
      </note>
      <note>
        <chord />
        <pitch>
          <step>E</step>
          <octave>4</octave>
        </pitch>
        <duration>20160</duration>
        <voice>8</voice>
        <type>half</type>
      </note>
      <note>
        <chord />
        <pitch>
          <step>D</step>
          <octave>4</octave>
        </pitch>
        <duration>20160</duration>
        <voice>8</voice>
        <type>half</type>
      </note>
      <note>
        <rest />
        <duration>840</duration>
        <voice>8</voice>
        <type>32nd</type>
        <time-modification>
          <actual-notes>3</actual-notes>
          <normal-notes>2</normal-notes>
          <normal-type>32nd</normal-type>
        </time-modification>
      </note>
      <backup>
        <duration>27720</duration>
      </backup>
      <note>
        <rest />
        <duration>7560</duration>
        <voice>9</voice>
        <type>eighth</type>
        <dot />
      </note>
      <note>
        <pitch>
          <step>F</step>
          <alter>1</alter>
          <octave>4</octave>
        </pitch>
        <duration>20160</duration>
        <voice>9</voice>
        <type>half</type>
      </note>
      <note>
        <chord />
        <pitch>
          <step>A</step>
          <octave>4</octave>
        </pitch>
        <duration>20160</duration>
        <voice>9</voice>
        <type>half</type>
      </note>
      <note>
        <chord />
        <pitch>
          <step>D</step>
          <octave>5</octave>
        </pitch>
        <duration>20160</duration>
        <voice>9</voice>
        <type>half</type>
      </note>
      <note>
        <chord />
        <pitch>
          <step>D</step>
          <octave>5</octave>
        </pitch>
        <duration>20160</duration>
        <voice>9</voice>
        <type>half</type>
      </note>
      <backup>
        <duration>27720</duration>
      </backup>
      <note>
        <rest />
        <duration>7560</duration>
        <voice>10</voice>
        <type>eighth</type>
        <dot />
      </note>
      <note>
        <pitch>
          <step>E</step>
          <octave>5</octave>
        </pitch>
        <duration>17640</duration>
        <voice>10</voice>
        <type>quarter</type>
        <dot />
        <dot />
      </note>
      <note>
        <chord />
        <pitch>
          <step>D</step>
          <octave>5</octave>
        </pitch>
        <duration>17640</duration>
        <voice>10</voice>
        <type>quarter</type>
        <dot />
        <dot />
      </note>
      <note>
        <chord />
        <pitch>
          <step>C</step>
          <octave>5</octave>
        </pitch>
        <duration>17640</duration>
        <voice>10</voice>
        <type>quarter</type>
        <dot />
        <dot />
      </note>
      <note>
        <chord />
        <pitch>
          <step>A</step>
          <octave>4</octave>
        </pitch>
        <duration>17640</duration>
        <voice>10</voice>
        <type>quarter</type>
        <dot />
        <dot />
      </note>
      <note>
        <rest />
        <duration>2520</duration>
        <voice>10</voice>
        <type>16th</type>
      </note>
      <backup>
        <duration>27720</duration>
      </backup>
      <note>
        <rest />
        <duration>10080</duration>
        <voice>11</voice>
        <type>quarter</type>
      </note>
      <note>
        <pitch>
          <step>B</step>
          <octave>4</octave>
        </pitch>
        <duration>17640</duration>
        <voice>11</voice>
        <type>quarter</type>
        <dot />
        <dot />
      </note>
      <note>
        <chord />
        <pitch>
          <step>C</step>
          <octave>5</octave>
        </pitch>
        <duration>17640</duration>
        <voice>11</voice>
        <type>quarter</type>
        <dot />
        <dot />
      </note>
      <note>
        <chord />
        <pitch>
          <step>D</step>
          <octave>5</octave>
        </pitch>
        <duration>17640</duration>
        <voice>11</voice>
        <type>quarter</type>
        <dot />
        <dot />
      </note>
      <note>
        <chord />
        <pitch>
          <step>E</step>
          <octave>5</octave>
        </pitch>
        <duration>17640</duration>
        <voice>11</voice>
        <type>quarter</type>
        <dot />
        <dot />
      </note>
      <backup>
        <duration>27720</duration>
      </backup>
      <forward>
        <duration>10080</duration>
      </forward>
      <note>
        <pitch>
          <step>D</step>
          <octave>5</octave>
        </pitch>
        <duration>16800</duration>
        <voice>12</voice>
        <type>half</type>
        <time-modification>
          <actual-notes>6</actual-notes>
          <normal-notes>5</normal-notes>
          <normal-type>16th</normal-type>
        </time-modification>
      </note>
      <note>
        <chord />
        <pitch>
          <step>C</step>
          <octave>5</octave>
        </pitch>
        <duration>16800</duration>
        <voice>12</voice>
        <type>half</type>
        <time-modification>
          <actual-notes>6</actual-notes>
          <normal-notes>5</normal-notes>
          <normal-type>16th</normal-type>
        </time-modification>
      </note>
      <barline location="right">
        <bar-style>light-heavy</bar-style>
      </barline>
    </measure>
  </part>
</score-partwise>